<svg height='100px' width='100px'  
fill="#fa7c92" xmlns="http://www.w3.org/2000/svg" xmlns:xlink="http://www.w3.org/1999/xlink" version="1.1" x="0px" y="0px" 
viewBox="0 0 145 145" 
enable-background="new 0 0 145 145" 
xml:space="preserve">
<path fill="#fa7c92" d="M48.6,29.7c-29.9,20.7-11.5,55.8-0.5,68.5c3.9,4.5,17.4,12.4,5.1,18.8c10.9,6.2,16.3-14.2,12.7-18.5  c-2.5-2.9-4.4-3-8.6-2.4c-2.7,0.4-4.9-0.6-5-2.9c-0.2-2.8-0.4-4.1-1.6-5c-1.1-1-0.9-3,0.9-3.3c-1.1,0-3.4-1.8-2.6-3  c0.4-0.6,0.1-1.2,0-1.6c-0.6-2.5-2.9-1.1-4.2-2.1c-1.4-1.1,1.6-5.5,2-10.5c0.4-5-0.6-2.7-0.8-7.3c-0.2-5-0.3-10.3,1.8-18.5  c0.3,22.8,17.9,21,26.7,33.2C86,91.2,80,113.5,64.1,123.3c15.3-3.7,37-1,51-23.7C137.2,63.6,107.5,3.5,48.6,29.7z"></path></svg>